# xmcd
# 
# Track frame offsets:
#     150
#     165697
#     183693
#     224829
# 
# Disc length: 4224
# 
# Revision: 1
# Processed by: cddbd v1.5.2PL0 Copyright (c) Steve Scherf et al.
# Submitted via: fre:ac v1.0.31
# 
DISCID=3d107e04
DTITLE=Harvey Mandel - Live At The Matrix - Snake Box CD6
DYEAR=2015
DGENRE=Blues
TTITLE0=Jam
TTITLE1=You've Got To Feel It
TTITLE2=3 O'Clock In THe Morning
TTITLE3=She's A Mojo Worker
EXTD=
EXTT0=
EXTT1=
EXTT2=
EXTT3=
PLAYORDER=
